/* XPM */
static char *_0679f6fb2de4128d056caeb125bd662sND8d5ogSTBRuTbL[] = {
/* columns rows colors chars-per-pixel */
"48 48 182 2 ",
"   c #383D50",
".  c #35394B",
"X  c #333748",
"o  c #3A3F53",
"O  c #373B4E",
"+  c #272A37",
"@  c #22242F",
"#  c #242632",
"$  c #242733",
"%  c #262935",
"&  c #282B38",
"*  c #262835",
"=  c #242732",
"-  c #363A4C",
";  c #393E51",
":  c #3B4055",
">  c #303445",
",  c #1C1E27",
"<  c #1A1C25",
"1  c #1E202A",
"2  c #1F212B",
"3  c #1F212A",
"4  c #262936",
"5  c #252733",
"6  c #21242F",
"7  c #21232E",
"8  c #313545",
"9  c #373C4F",
"0  c #383C4F",
"q  c #20222C",
"w  c #232531",
"e  c #282A37",
"r  c #2D303E",
"t  c #2B2E3C",
"y  c #272937",
"u  c #2C2F3D",
"i  c #242631",
"p  c #3C4155",
"a  c #373C4E",
"s  c #34384A",
"d  c #333749",
"f  c #3C4056",
"g  c #323547",
"h  c #292C39",
"j  c #2E3140",
"k  c #292B38",
"l  c #2D303F",
"z  c #282A36",
"x  c #3C4156",
"c  c #343849",
"v  c #35394C",
"b  c #333848",
"n  c #323647",
"m  c #20232D",
"M  c #393E52",
"N  c #333647",
"B  c #3A3E52",
"V  c #333849",
"C  c #272A36",
"Z  c #292B39",
"A  c #383D4F",
"S  c #3C4055",
"D  c #323546",
"F  c #21232D",
"G  c #252732",
"H  c #343749",
"J  c #3B4156",
"K  c #282B39",
"L  c #303343",
"P  c #252833",
"I  c #2B2D3C",
"U  c #20232E",
"Y  c #272936",
"T  c #2F3242",
"R  c #252834",
"E  c #1F212C",
"W  c #22232F",
"Q  c #232530",
"!  c #222530",
"~  c #262734",
"^  c #20222D",
"/  c #313445",
"(  c #2F3343",
")  c #1B1D26",
"_  c #191A22",
"`  c #1D1E28",
"'  c #1D1E27",
"]  c #20212C",
"[  c #262834",
"{  c #191B23",
"}  c #16171E",
"|  c #191A23",
" . c #1E1F29",
".. c #303344",
"X. c #2B2E3E",
"o. c #0D0E13",
"O. c #08080B",
"+. c #09090B",
"@. c #0E0F14",
"#. c #2B2E3D",
"$. c #3B3F54",
"%. c #06070A",
"&. c black",
"*. c #060608",
"=. c #3A3F54",
"-. c #333648",
";. c #3B4054",
":. c #262937",
">. c #07080A",
",. c #060709",
"<. c #252735",
"1. c #323648",
"2. c #232430",
"3. c #1F202B",
"4. c #3B3F53",
"5. c #07070A",
"6. c #1A1C24",
"7. c #1D1F29",
"8. c #181920",
"9. c #242734",
"0. c #222430",
"q. c #15161D",
"w. c #1F202A",
"e. c #1B1C25",
"r. c #181921",
"t. c #0E0E14",
"y. c #1D1F2A",
"u. c #323748",
"i. c #0D0E12",
"p. c #1E1F28",
"a. c #1A1B23",
"s. c #08090B",
"d. c #1E202B",
"f. c #282B3A",
"g. c #272A39",
"h. c #060609",
"j. c #1E1E28",
"k. c #070709",
"l. c #09090C",
"z. c #20222B",
"x. c #383D51",
"c. c #363A4D",
"v. c #20212B",
"b. c #272A38",
"n. c #1E212A",
"m. c #252734",
"M. c #252936",
"N. c #08090C",
"B. c #1C1D27",
"V. c #313547",
"C. c #1A1B24",
"Z. c #0E0E13",
"A. c #242633",
"S. c #252836",
"D. c #14141B",
"F. c #1D1F28",
"G. c #2A2D3C",
"H. c #1D202A",
"J. c #2A2E3C",
"K. c #171820",
"L. c #15161E",
"P. c #2F3243",
"I. c #1C1D26",
"U. c #1F222C",
"Y. c #313647",
"T. c #313546",
"R. c #232632",
"E. c #0E0F13",
"W. c #181A22",
"Q. c #16171F",
"!. c #3B4155",
"~. c #22252F",
"^. c #252632",
"/. c #2E3141",
"(. c #3C4256",
"). c #3D4257",
"_. c #373D4F",
"`. c #2C2E3C",
"'. c #313446",
"]. c #35384B",
"[. c #353A4C",
"{. c white",
/* pixels */
"                                                                                                ",
"                                                                                                ",
"              . X X X X X X X X X X X X X X X X X X X X X X X X X X X X X X X X .               ",
"            o O + @ # $ $ $ $ $ $ $ $ % & + * & & * + & % $ $ $ $ $ $ $ $ $ = & - o             ",
"            ; : > , < 1 2 2 3 3 3 3 3 @ 4 5 6 * * 6 5 4 @ 3 3 3 3 3 3 2 2 3 7 8 : ;             ",
"    9 0       ; : 8 q 2 w # # # # # # e r t y u u y t r e # # # # # # # i * X p ;       0 a     ",
"    s d 9       ; f g 7 q # 5 5 5 5 5 h j u k l l k u j h 5 5 5 5 5 5 5 z s x ;       9 c v     ",
"    b l n 0       ; : g m q # 5 5 5 5 h j u k l l k u j h 5 5 5 5 5 5 z s : M       0 n N B     ",
"    V C Z X A       ; S D F q # 5 5 5 & r t e u u e t r & 5 5 5 5 G z H J M       A X K L p     ",
"    c P F I X 9       ; S g U q # 5 5 * Y Y * Y Y * Y Y * 5 5 5 5 z s p ;       0 X & q T p     ",
"    c P 2 R t X 9       ; : g E 1 W Q @ @ @ @ @ @ @ @ @ @ @ ! @ ~ s p ;       0 X K q ^ / p     ",
"    c P 2 # * t X A       ; : ( ) _ , ` ` ` ` ` ` ` ` ` ` ` ' ] / p M         X K q ^ # D p     ",
"    c P 2 # 5 [ t X 9       ; : T { } _ | | | | | | | | | _  ...: M       0 X & q ^ # 5 D p     ",
"    c P 2 # 5 5 * t X 9       ; : X.o.O.+.+.+.+.+.+.+.O.O.@.#.: M       0 X K q ^ # 5 5 D p     ",
"    c P 2 # 5 5 5 [ t X         ; $.4 %.&.&.&.&.&.&.&.&.*.$ =.M         X K q ^ # 5 5 5 D p     ",
"    c P 2 # 5 5 5 5 G Z -.0       ; ;.:.>.&.&.&.&.&.&.,.<.$.M       0 1.4 3 ^ # 5 5 5 5 D p     ",
"    c P 2 # 5 5 5 5 2.3.e X 0       ; 4.:.5.&.&.&.&.,.<.=.M       0 -.* 6.2 G 5 5 5 5 5 D p     ",
"    c P 2 # 5 G 2 7., 8._ w n         ; ;.4 5.&.&.,.9.$.M         n 0.q.q.) 7.2 G 5 5 5 D p     ",
"    c P 2 # 5 i < w.2 e.r.t.y.n A       ; ;.:.>.,.<.$.M       A u.1 i.q.e.2 1 < i 5 5 5 D p     ",
"    c P 2 # 5 w , Q 2.p.a.s.*.d.n 0       ; 4.f.g.=.M       0 n E h.O._ j.2.Q , w 5 5 5 D p     ",
"    c P 2 # 5 w , # Q ` | s.&.,.d.n         ; S x M         1.E k.&.l.| ` Q # , w 5 5 5 D p     ",
"    c P z.# 5 w , # Q ` | l.&.&.h.1 n A       x.x.      A 1.d.,.&.&.l.| ` Q # , w 5 5 5 D p     ",
"    c P q 5 5 w , # Q ` | l.&.&.&.h.d.n 0             A n E ,.&.&.&.l.| ` Q # , w 5 5 5 D p     ",
"    V Q ) 2 q 1 6.i Q ` | l.&.&.&.&.h.6 0 x.          c.6 ,.&.&.&.&.l.| ` Q i 6.1 q z.v.T p     ",
"    V ! 6.1 2 7.{ i Q ` | l.&.&.&.&.,.+ : x.          M b.>.&.&.&.&.l.| ` Q i { 7.2 n.n.T p     ",
"    c R q 5 R i , # Q ` | l.&.&.&.,.m.o M             ; o :.5.&.&.&.l.| ` Q # , i R P 5 g p     ",
"    c P z.# 5 w , # Q ` | l.&.&.,.$ $.M                 ; ;.M.5.&.&.l.| ` Q # , w 5 5 5 D p     ",
"    c P 2 # 5 w , i Q ` | N.&.,.m.$.M       9 d d 9       ; ;.:.>.&.l.| ` Q i , w 5 5 5 D p     ",
"    c P 2 # 5 w B.0.2.j.a.s.*.m.o M       9 n U ^ V.9       ; o :.,.O._ ` 2.0.B.w 5 5 5 D p     ",
"    c P 2 # 5 i < 1 1 C.} Z.A.$.M       9 n E k.,.1 n 9       ; ;.S.i.D.| 1 1 < i 5 5 5 D p     ",
"    c P 2 # 5 5 q 2 F._ < G.=.M       9 n d.,.&.&.*.H.n 9       ; $.J.K.L.' 2 q 5 5 5 5 D p     ",
"    c P 2 # 5 5 5 R Q q ..: M       0 n E ,.&.&.&.&.*.1 n 0       ; : P.I.w.G 5 5 5 5 5 D p     ",
"    c P 2 # 5 5 5 5 [ / : M       0 n E k.&.&.&.&.&.&.,.1 n 0       ; : ( U.q # 5 5 5 5 D p     ",
"    c P 2 # 5 5 G z s p M       9 n 1 h.&.&.&.&.&.&.&.&.*.7.Y.9       ; : T.7 q # 5 5 5 D p     ",
"    c P 2 # 5 5 C s p M       0 1.R.o.O.+.+.+.+.+.+.+.O.O.E.# X 0       ; S g m q # 5 5 D p     ",
"    c P 2 # 5 C H x M         1.* W.Q._ | | | | | | | | | | ` e X         ; p T.m q # 5 D p     ",
"    c P z.# z s x ;       0 X 4 6.| , ` ` ` ` ` ` ` ` ` ` ` ' w.Z X 9       ; !.T.m q # g p     ",
"    c P z.Y s p M       0 X K 1 1 @ Q @ @ @ @ @ @ @ @ @ @ @ ~.@ ^.t X 9       ; : V.F q / p     ",
"    c P @ H x M         X K q ^ # 5 5 * Y Y * Y Y * Y Y * 5 5 5 5 [ t X A       ; !.T.F /.p     ",
"    X & / p M       0 X & q ^ # 5 5 5 & r t e u u e t r & 5 5 5 5 5 [ t X 9       ; x g T.p     ",
"    . c.: M       0 X K q ^ # 5 5 5 5 h j u k l l k u j h 5 5 5 5 5 5 [ t X 9       ; : x p     ",
"  x.p (.M         X K q ^ # 5 5 5 5 5 h j u k l l k u j h 5 5 5 5 5 5 5 [ t X A       ; ).:     ",
"  ; ;.;       A X & q ^ # 5 5 5 5 5 5 h j u k l l k u j h 5 5 5 5 5 5 5 5 [ t X _.      x.;     ",
"            9 X K q ^ i G G G G G G G k j `.e r r e `.j k G G G G G G G G G [ t X 9             ",
"          A c n ( /.> '.'.'.'.'.'.'./ X - ].u.[.[.u.].- X / '.'.'.'.'.'.'.'./ g 1.c A           ",
"          9 . M p !.: : : : : : : : : : : : : : : : : : : : : : : : : : : : : : M v 9           ",
"                                                                                                ",
"                                                                                                "
};
