/* XPM */
static char *result[] = {
/* columns rows colors chars-per-pixel */
"48 48 54 1 ",
"  c #1E1F29",
". c #1E1F28",
"X c #1C1D27",
"o c #1D1E27",
"O c #1D1E28",
"+ c #1F202A",
"@ c #111217",
"# c #0B0B0E",
"$ c #121218",
"% c #21222D",
"& c #1B1D26",
"* c #0E0E13",
"= c #050507",
"- c #0B0C0F",
"; c #1E1F2A",
": c #21232E",
"> c #181921",
", c #15151C",
"< c #1E1E28",
"1 c #1A1B23",
"2 c #121319",
"3 c #040406",
"4 c #0B0C10",
"5 c #07070A",
"6 c #0F0F14",
"7 c #21222E",
"8 c #0F0F13",
"9 c #131319",
"0 c #191921",
"q c #070709",
"w c #191922",
"e c #22232E",
"r c #22222E",
"t c #0A0A0E",
"y c #13141B",
"u c #20222D",
"i c #1F202B",
"p c #15151B",
"a c #0E0E12",
"s c #070609",
"d c #0B0B0F",
"f c #040405",
"g c #14151C",
"h c #0E0F14",
"j c #0E1014",
"k c #0F1014",
"l c #0E1015",
"z c #0D0E12",
"x c #171820",
"c c #20212C",
"v c #1F212B",
"b c #1A1B25",
"n c #1B1C25",
"m c white",
/* pixels */
"                                                ",
"                                                ",
"                                                ",
"                                                ",
"            .XXXXXXXXXXXXXXXXXXXXXXXXXXXXoO     ",
"           + @############################$O    ",
"            %&*##########################=-o    ",
"            ;:%>,,,,,,,,,,,,,,,,,,,,,,,,,#-o    ",
"             ;:%>,,,,,,,,,,,,,,,,,,,,,,,,#-o    ",
"               :%>,,,,,,,,,,,,,,,,,,,,,,,#-o    ",
"               ;:%>,,,,,,,,,,,,,,,,,,,,,,#-o    ",
"    <1O         ;:%>,,,,,,,,,,,,,,,,,,,,,#-o    ",
"    o*2O          :%>,,,,,,,,,,,,,,,,,,,,#-o    ",
"    o-32O         ;:%>,,,,,,,,,,,,,,,,,,,#-o    ",
"    o4=52O         ;:%>,,,,,,,,,,,,,,,,,,#-o    ",
"    o4#652O          :%>,,,,,,,,,,,,,,,,,#-o    ",
"    o4#,652O         ;:7>,,,,,,,,,,,,,,,,#-o    ",
"    o4#,,859O         ;:7>,,,,,,,,,,,,,,,#-o    ",
"    o4#,,,659O          :%>,,,,,,,,,,,,,,#-o    ",
"    o4#,,,,659O         ;:70,,,,,,,,,,,,,#-o    ",
"    o4#,,,,,859O         ;:70,,,,,,,,,,,,#-o    ",
"    o4#,,,,,,8q9O          :70,,,,,,,,,,,#-o    ",
"    o4#,,,,,,,859O         ;::0,,,,,,,,,,#-o    ",
"    o4#,,,,,,,,859O         ;::0,,,,,,,,,#-o    ",
"    o4#,,,,,,,,,*q9O          :70,,,,,,,,#-o    ",
"    o4#,,,,,,,,,,*59O         ;:70,,,,,,,#-o    ",
"    o4#,,,,,,,,,,,*59O         ;:70,,,,,,#-o    ",
"    o4#,,,,,,,,,,,,*q9O          :7w,,,,,#-o    ",
"    o4#,,,,,,,,,,,,,*59O         ;:70,,,,#-o    ",
"    o4#,,,,,,,,,,,,,,*59O         ;:70,,,#-o    ",
"    o4#,,,,,,,,,,,,,,,*q9O          erw,,#-o    ",
"    o4#,,,,,,,,,,,,,,,,*q9O         ;er0,#-o    ",
"    o4#,,,,,,,,,,,,,,,,,*q9O         ;er0t-o    ",
"    o4#,,,,,,,,,,,,,,,,,,*q9O          er6-o    ",
"    o4#,,,,,,,,,,,,,,,,,,,*q9O         ;eOyo    ",
"    o4#,,,,,,,,,,,,,,,,,,,,*q9O         ;:u     ",
"    o4#,,,,,,,,,,,,,,,,,,,,,*q9O          i     ",
"    o4#,,,,,,,,,,,,,,,,,,,,,paq9O               ",
"    o4#,,,,,,,,,,,,,,,,,,,,,,paq9O              ",
"    o4#,,,,,,,,,,,,,,,,,,,,,,,pas9O             ",
"    o4#,,,,,,,,,,,,,,,,,,,,,,,,paq9O            ",
"    Od=tttttttttttttttttttttttttt3f9O           ",
"    Oghjjjjjjjjjjjjjjjjjjjjjjjjjklzdx           ",
"     icvvvvvvvvvvvvvvvvvvvvvvvvvvcibn           ",
"                                                ",
"                                                ",
"                                                ",
"                                                "
};
