/* XPM */
static char *result[] = {
/* columns rows colors chars-per-pixel */
"48 48 213 2 ",
"   c #060709",
".  c #0B0B0F",
"X  c #040406",
"o  c #0D0D11",
"O  c #110F14",
"+  c #1A0E18",
"@  c #0F1015",
"#  c #15151C",
"$  c #1A131C",
"%  c #151419",
"&  c #25191A",
"*  c #1C1B23",
"=  c #1E1F29",
"-  c #221C25",
";  c #231E29",
":  c #291E28",
">  c #1F202A",
",  c #22212C",
"<  c #2B222C",
"1  c #34242B",
"2  c #3A2828",
"3  c #2A2431",
"4  c #292538",
"5  c #252531",
"6  c #322C38",
"7  c #393539",
"8  c #5B340E",
"9  c #432918",
"0  c #532A17",
"q  c #49351B",
"w  c #583E11",
"e  c #543C19",
"r  c #683D0B",
"t  c #753D16",
"y  c #402D24",
"u  c #482B28",
"i  c #463322",
"p  c #513B22",
"a  c #553533",
"s  c #413C3D",
"d  c #633D29",
"f  c #693B36",
"g  c #5C4219",
"h  c #5F4005",
"j  c #6F4B05",
"k  c #69420D",
"l  c #684717",
"z  c #7E4811",
"x  c #794F0A",
"c  c #55493A",
"v  c #7F4C28",
"b  c #76402D",
"n  c #7C4537",
"m  c #70523C",
"M  c #694E3E",
"N  c #3A3642",
"B  c #3A3944",
"V  c #3E3B4A",
"C  c #323248",
"Z  c #353750",
"A  c #312E42",
"S  c #473C48",
"D  c #3E4152",
"F  c #4E4744",
"G  c #4A444B",
"H  c #554744",
"J  c #4A4750",
"K  c #494A56",
"L  c #4E5158",
"P  c #525259",
"I  c #585051",
"U  c #59504A",
"Y  c #665B54",
"T  c #635A5F",
"R  c #695754",
"E  c #6E554F",
"W  c #6C625A",
"Q  c #71635C",
"!  c #786D47",
"~  c #424B67",
"^  c #4C5569",
"/  c #5C5B61",
"(  c #555967",
")  c #515C76",
"_  c #576271",
"`  c #5D6369",
"'  c #646268",
"]  c #65696E",
"[  c #746A62",
"{  c #7C6E66",
"}  c #7A6F6D",
"|  c #7A7269",
" . c #686973",
".. c #6F777A",
"X. c #6D7477",
"o. c #787C7E",
"O. c #757676",
"+. c #885609",
"@. c #965A18",
"#. c #8C5616",
"$. c #976207",
"%. c #92670F",
"&. c #BD6B1D",
"*. c #A6680C",
"=. c #964C20",
"-. c #995529",
";. c #975A37",
":. c #8B4E2B",
">. c #A35735",
",. c #AB5B2C",
"<. c #866320",
"1. c #B17725",
"2. c #B26833",
"3. c #C86C27",
"4. c #DC6F35",
"5. c #C67A31",
"6. c #CF6B32",
"7. c #825950",
"8. c #8D6A4D",
"9. c #B27E45",
"0. c #AD6F54",
"q. c #83756C",
"w. c #8B7C72",
"e. c #867D76",
"r. c #977768",
"t. c #9D8536",
"y. c #B59B2F",
"u. c #D38635",
"i. c #CB8733",
"p. c #E4873E",
"a. c #AD8B4C",
"s. c #99857B",
"d. c #948071",
"f. c #A88F6E",
"g. c #DA8F44",
"h. c #E99C44",
"j. c #EBA949",
"k. c #F3AB4E",
"l. c #CC926B",
"z. c #CAAE5D",
"x. c #E4C74F",
"c. c #F9CC56",
"v. c #FBE35B",
"b. c #FFF960",
"n. c #4F5E80",
"m. c #5F708D",
"M. c #667A97",
"N. c #697481",
"B. c #827D83",
"V. c #73818F",
"C. c #7F8383",
"Z. c #7A8D9F",
"A. c #798992",
"S. c #748BA9",
"D. c #8B8F8E",
"F. c #818787",
"G. c #988D83",
"H. c #8B918F",
"J. c #9B988B",
"K. c #989794",
"L. c #8A979A",
"P. c #A49589",
"I. c #A69B8C",
"U. c #AC9C8E",
"Y. c #A79689",
"T. c #AF9F91",
"R. c #9EA29E",
"E. c #ACA297",
"W. c #B4AC9B",
"Q. c #BAAE9F",
"!. c #B1A597",
"~. c #B5B29F",
"^. c #869AA5",
"/. c #8BA2AF",
"(. c #97A7A4",
"). c #8CA6BC",
"_. c #9AAEB9",
"`. c #BCB4A4",
"'. c #BEBCA7",
"]. c #B2ACB1",
"[. c #ACB3BA",
"{. c #B6BDBD",
"}. c #A4A7AA",
"|. c #D5AD9A",
" X c #C2B5A5",
".X c #CCBFAD",
"XX c #C5BDAB",
"oX c #D1B9A9",
"OX c #A5C1BA",
"+X c #C7C2AD",
"@X c #CCC4B2",
"#X c #CDC8B3",
"$X c #D5CCB9",
"%X c #D2C6B4",
"&X c #DAD2BE",
"*X c #D5D1BB",
"=X c #F5CEB3",
"-X c #93AAC2",
";X c #94B1C8",
":X c #A9C9D9",
">X c #BFD2DC",
",X c #B5C9CE",
"<X c #B8D9E8",
"1X c #BDE3F2",
"2X c #C3C5C3",
"3X c #DDD6C3",
"4X c #DEDCC4",
"5X c #DED1CA",
"6X c #D8D3D3",
"7X c #E8E0D2",
"8X c #C6EEFD",
"9X c #DAF4FE",
"0X c #E6F7FE",
/* pixels */
"= = = = = = = = = = = = = = = = = = = = = = = = = = = = = = = = > > * > > * > > > > > > > > * > ",
"= = = = = = = = = = = = = = = = = = = = = = = = = = = = = = = = > > > > > > > * > * * > > > > > ",
"= = = = = = = = = = = = = = = = = = = = = = = = 3 * = = = = = = * > > * > * > > > > > > * > > * ",
"= = = = = = = = = = = = = = = = = = = = = = = , e 3 = = = = = = > > > > > > > > > * > > > > > > ",
"= = = = = = = = = = = = > > = > = = > > > > * B.G = > > = = = = > > > > = > > > > > > > * > > > ",
"= = = = = = = = = = = = = o o o . . . . . . # G.T O . o o . . o . . . . . . o o . . # * > > > > ",
"= = = = = = = = = = = > > = @ o o ; u @ @ # $ U.T < = @ + u = o o o o o o o o o .   . > > > > * ",
"= = = = = = = = = = = > > > 5 * # , g.c g -.>.oXY f z g 8.1.; # # # # # # # # # # . @ > > * > > ",
"= = = = = = = = = = = = = = , , # $ ;.z.%.&.0.6XT -.4.5.g.:.# # # # # # # # # # # . o = = = = = ",
"= = = = = = = = = = = = = = = , , < &.k.k.3.7.q.S >.4.h.u.+.< # # # # # # # # # # . o = = = = = ",
"= = = = = = = = = = = = = = = = 5 g g.j.c.j.7.S S >.4.4.%.x q # # # # # # # # # # . o = = = = = ",
"= = = = = * = = = = = = = = , ; 4 x h.h.k.v.r. .' 0.4.6.$.$.h > # - # # # # # # # . o = = = = = ",
"= = = = = o # = = = = = = = 5 c 5 l p.v.b.a.2.a.-.:.6.6.*.$.h > c ; % # # # # # # . o = = = = = ",
"= = = = > o   # * = = = = = 5 1.a g ,.m ! E.(.R.D.' E d e k g n 1.; # # # # # # # . o = = = = = ",
"= = = = = .     # = = = = = = v @.j >.N P 2X,XK.{.K.F.P 3 w j ,.:.* # # # # # # # . o = = = = = ",
"= = = = = o o o   # = = = = = p ,.a B }.' o.o.P o.o.P }.P N g %.p # # # # # # # # o o = = = = = ",
"= = = = = o o # @   # * = = - 1 2 B C.] J R.R.' E.(.' H.] ..q e 2 # # # # # # # # . . > = = = = ",
"= = = = = o o # * o   # = = = : B B o.D./ (.R.' R.R.' o.] / G 1 : % # # # # # # # . . > = = = = ",
"= = = = = o o # # # o   # * = : B B ] D./ E.H.P ] ] J ] ] L 7 q.U - $ # # # # # % . o > = = = = ",
"= = = = = o o # # # # #   # * = , 6 L ] J o.] J ] ] J ] L G < [ E.I.F * # # # # # . . > = = = = ",
"= = = = = . o # # # # # o   # ; 5 3 B X.L ] ] J ] ] J X.N 1 H s.I.T.P.F # # # # # o o = = = = = ",
"= = = = = o o # # # # # # % ; y j k 6 K / X.X.` ..]  .S f Q !.!.#X4X~.P.c # # # # . o = = = = = ",
"= = = = = . . # # # # # + ; 4 +.&.0 I.N./.G J J J B 3 ].I !.U.&X4X4X4X#X[ * # # # . o = = = = = ",
"= = = = = o o # # # # # * 3 q -.@.-.B.6X<XS W 8.f.O.S _.K. X.X3X4X4X4X4Xd.F * % # . o = = > = = ",
"= = = = = o o # # # # $ * 1 y v ;.2 ^.( _.[.8.z.! 7 [.L.~.+X&X4X4X4X4X4X X{ 7 % % . . > > > > > ",
"= = = = = . o # # # # # * 1 2 l #.9 :X1X1X1X:X,X/.:X1XQ %X*X4X4XJ.P.+X4X$X@XW % % . . > > * > > ",
"= = = = = o o # # # # # - n 9.e y & :X1X9X8X1X8X8X8X8X[ @X#X4XI.{ U.G.+X4X%XY % # . . > > * > * ",
"= = = = = o o # # # # # * >.k.w 3 $ m.).:X0X9X9X9X9X0XO.%X#X4Xd.Y.7X| E.3XW.U % # . . > > > > > ",
"= = = = = o o # # # # # = -.k.w * % 6 ^ M.-X6X>X>X>X-X| %X$X3Xw.w.3XG.W.3XI.F # # . o > > > > > ",
"= = = = = . o # # # # # * a m 2 : $ ; V D _ /.OXOXA._ [ $X$X&Xe.W P.} ~.4XI.F # # . o > > * * > ",
"= = = = = o o # # # # # * S |.=Xr.1 + ; 4 5 N./ ` L 5 | XX@X3Xq.W Y.{ ~.4X!.U % # . o > > > * > ",
"= = = = = o o # # # # # + 0.=X=Xs.1 3 C 4 4 S N K C 4 Q  X#X4X'.| d.I.$X4X+XY # # . . > > > > > ",
"= = = = = o o # # # # # # n |.=XE & 6 n.M.Z.Z.B S Z.Z.[  X#X&X4X`.`.*X4X4X+XY , * . o > > * > > ",
"= = = = = o o # # # # # # * E f.r.f K ^ ~ V.V.N 4 ( M.D s.+X4X&X4X4X4X4X+Xd.F > , @ o > > > > > ",
"= = = = = o o # # # # # # # + - $ + K N.V.V.) C ~ N.V.A.| I.4X4X4X4X3X3XT.Y < = 5 5 # > * > > * ",
"= = = = = o o # # # # # # $ $ + + ( [. .K ).) Z Z m.).K 7 I.~.4X4X4X3X3X{ 7 > = > > > > > > > > ",
"= = = = = . o # # $ # # # # # # + ~ <X<XS.+ % + + + + S.1X^.s.~.`.Q. XI.[ , = = * > > > > * > > ",
"= = = = = o o # # # # # # # # # # D :X-XM.+ # # # # $ M.;X:X( s.T.I.Y.{ , ; = = > > > * > > > > ",
"= = = = = . o # # # # # # # # * 9 a.l.R S = # # # # * c f.l.8.M Y Y Y 7 > = = = > > > > * > > * ",
"= = = = = o o # # # # # # # # i x <.-.@.l ; # # # # ; g y.t.=.b & # * = = = = = > > > > > > > > ",
"= = = = = o o # # # # # # # # 2 @.x.h.#.r : # # # % : 8 =.x.g.t 2 X @ > > > > > * > > > * > > > ",
"= = = = = o   o o o o o o o . y @.u.5.r 0 ; o o . . O 2 #.u.5.x 2 X   # > > * > > > > > > > > * ",
"= = = = = # @ @ o @ @ @ @ @ o * 2 r 8 1 3 o @ @ o O @ * 1 8 k 1 # @ o . * * * > > > > * > > > > ",
"= = = = = > > , , > , > > > , > , < 1 , , , , > > ; ; = - 1 1 > , , > * > > > > * > > > > > * > ",
"= = = = = = = = = = = = > = = = = , , = = = = = = = = = = , ; = > > > > > > * > > > > > > > > > ",
"= = = = = = = = = = = = = = = = = = = = = = = = = = = = = = > = > > > > > > > > > > * > * > > * ",
"= = = = = = = = = = = = = = = = = = = = = = = = = = = = = = = = > * > > > * > * * > > > > > > > ",
"= = = = = = = = = = = = = = = = = = = = = = = = = = = = = = = = > > > > > > > > > > * > > * > > "
};
