/* XPM */
static char *result[] = {
/* columns rows colors chars-per-pixel */
"48 48 214 2 ",
"   c #070709",
".  c #0B0B0F",
"X  c #040406",
"o  c #0D0D11",
"O  c #110F14",
"+  c #1A0D18",
"@  c #0F1015",
"#  c #15151C",
"$  c #18131C",
"%  c #131116",
"&  c #20171D",
"*  c #21181F",
"=  c #35271B",
"-  c #1C1A23",
";  c #1E1F29",
":  c #231A23",
">  c #2C1E23",
",  c #231D28",
"<  c #281F2C",
"1  c #1E202A",
"2  c #2A2627",
"3  c #21212C",
"4  c #2A212E",
"5  c #292628",
"6  c #302125",
"7  c #34292C",
"8  c #3C2D28",
"9  c #392925",
"0  c #2B2532",
"q  c #292538",
"w  c #232531",
"e  c #342C38",
"r  c #393437",
"t  c #3A302D",
"y  c #4E380E",
"u  c #402616",
"i  c #4E2C16",
"p  c #483317",
"a  c #533B17",
"s  c #583E11",
"d  c #58371C",
"f  c #673D0E",
"g  c #452C27",
"h  c #572D2D",
"j  c #423123",
"k  c #453328",
"l  c #583729",
"z  c #412D33",
"x  c #423535",
"c  c #46393F",
"v  c #563531",
"b  c #653B27",
"n  c #683E34",
"m  c #673E34",
"M  c #5F420B",
"N  c #5C421C",
"B  c #6D4A00",
"V  c #68480B",
"C  c #764E03",
"Z  c #765000",
"A  c #7D5501",
"S  c #71461C",
"D  c #735011",
"F  c #6A4A11",
"G  c #5D4529",
"H  c #5A4E3A",
"J  c #7B462B",
"K  c #70523C",
"L  c #734D36",
"P  c #2F2C40",
"I  c #35354B",
"U  c #383749",
"Y  c #3C3C52",
"T  c #423F4B",
"R  c #473D42",
"E  c #3E4153",
"W  c #3E4460",
"Q  c #4D4343",
"!  c #47424C",
"~  c #544849",
"^  c #434653",
"/  c #4A4C59",
"(  c #524C56",
")  c #5A5253",
"_  c #665A54",
"`  c #65595A",
"'  c #7D5650",
"]  c #735858",
"[  c #755449",
"{  c #746842",
"}  c #6C615B",
"|  c #434C68",
" . c #464D67",
".. c #4F596A",
"X. c #4D5265",
"o. c #565B68",
"O. c #4A5471",
"+. c #4B5878",
"@. c #535D75",
"#. c #5A657E",
"$. c #696364",
"%. c #736A65",
"&. c #77717B",
"*. c #606877",
"=. c #895D01",
"-. c #855606",
";. c #87551C",
":. c #965718",
">. c #8E4B1A",
",. c #8D6000",
"<. c #956500",
"1. c #9D6509",
"2. c #9E741E",
"3. c #9A6111",
"4. c #A3660C",
"5. c #AD6912",
"6. c #A86415",
"7. c #B56A18",
"8. c #BB6A1D",
"9. c #884E2C",
"0. c #9D5628",
"q. c #8D5533",
"w. c #A35735",
"e. c #B05E2D",
"r. c #8A6D31",
"t. c #B06F30",
"y. c #CC6D29",
"u. c #C46B23",
"i. c #D46E2F",
"p. c #DC6F35",
"a. c #C87734",
"s. c #E07939",
"d. c #886C42",
"f. c #AC6342",
"g. c #827870",
"h. c #8E726D",
"j. c #84514C",
"k. c #D89137",
"l. c #E4883E",
"z. c #DCAD3D",
"x. c #9B9677",
"c. c #8D877C",
"v. c #AA8776",
"b. c #E88D41",
"n. c #E99743",
"m. c #E8A645",
"M. c #F3AB4E",
"N. c #EFB34C",
"B. c #F7B552",
"V. c #C78672",
"C. c #C5BF79",
"Z. c #CFB252",
"A. c #D1C355",
"S. c #F7C554",
"D. c #F3CF52",
"F. c #FAD858",
"G. c #FFED5F",
"H. c #4F5E80",
"J. c #56688C",
"K. c #667894",
"L. c #657285",
"P. c #73818F",
"I. c #7B8C9A",
"U. c #7086A4",
"Y. c #768DAA",
"T. c #7F97B1",
"R. c #7891AF",
"E. c #968E81",
"W. c #958D83",
"Q. c #A3968A",
"!. c #A69B8C",
"~. c #AC9B8D",
"^. c #AA968A",
"/. c #AF9586",
"(. c #ABA196",
"). c #B0A293",
"_. c #B6A99B",
"`. c #8CA4B7",
"'. c #8BA0AF",
"]. c #B3AEB2",
"[. c #ABB0A9",
"{. c #DA9F82",
"}. c #F0BF9E",
"|. c #E3B196",
" X c #C6B9AA",
".X c #C9B9AA",
"XX c #CDC5B2",
"oX c #D3C8B5",
"OX c #D4CEB9",
"+X c #D3C7B6",
"@X c #D7D2BC",
"#X c #F8D3B7",
"$X c #E8C9B2",
"%X c #98B6CB",
"&X c #90ACC2",
"*X c #B0B8C0",
"=X c #A3C1D1",
"-X c #A8C6D6",
";X c #ABCBDC",
":X c #B1D3E2",
">X c #B9DDEC",
",X c #BDE3F2",
"<X c #DDD5C3",
"1X c #DEDCC5",
"2X c #D7D0C6",
"3X c #DEDAD8",
"4X c #E2DBCA",
"5X c #E7DFD6",
"6X c #F9DAC4",
"7X c #C6EEFD",
"8X c #D6F2FC",
"9X c #C6E1ED",
"0X c #E9F8FE",
"qX c #F7FCFF",
/* pixels */
"; ; ; ; ; ; ; ; ; ; ; ; ; ; ; ; ; ; ; ; ; ; ; ; ; ; ; ; ; ; ; ; ; ; ; ; ; ; ; ; ; ; ; ; ; ; ; ; ",
"; ; ; ; ; ; ; ; ; ; ; ; ; ; ; ; ; ; ; ; ; ; ; ; ; ; ; ; ; ; ; ; ; ; ; ; ; ; ; ; ; ; ; ; ; ; ; ; ",
"; ; ; ; ; ; ; ; ; ; ; ; ; ; ; ; ; ; ; ; ; ; ; ; , 3 ; 1 ; ; ; ; ; ; ; ; ; ; ; ; ; ; ; ; ; ; ; ; ",
"; ; ; ; ; ; ; ; ; ; ; ; ; ; ; ; ; ; ; ; ; ; ; , 8 j 3 , ; ; ; ; ; ; ; ; ; ; ; ; ; ; ; ; ; ; ; ; ",
"; ; ; ; ; ; ; ; ; ; ; ; ; 1 ; ; ; ; ; ; ; ; ; - (.R ; ; ; 1 1 ; ; ; ; 1 ; ; ; ; ; ; ; ; ; ; ; ; ",
"; ; ; ; ; ; ; ; ; ; ; ; ; o . . . o . o . . . $  XR O o . . . . . o . . . o o o . . # 1 ; ; ; ; ",
"; ; ; ; ; ; ; ; ; ; ; 1 1 ; # . o o t 6 o # % $ 2XT < % o % v # o o o o o o o o o   o 1 ; ; ; ; ",
"; ; ; ; ; ; ; ; ; ; ; 1 1 1 w - # # K Z.H ;.w.g 2XR J D j d.;.- # # # # # # # # # . o 1 ; ; ; ; ",
"; ; ; ; ; ; ; ; ; ; ; ; ; 1 1 1 # # z Z.A.-.y.h 5XR 0.8.0.t.= $ # # # # # # # # # . o ; ; ; ; ; ",
"; ; ; ; ; ; ; ; ; ; ; ; ; ; 1 w w - l 8.m.k.y.L ).! w.u.7.3.M : # # # # # # # # # o o ; ; ; ; ; ",
"; ; ; ; ; ; ; ; ; ; ; ; ; ; ; ; 3 5 :.z.m.F.l.G C.T w.u.<.,.C 9 - % # # # # # # # . o ; ; ; ; ; ",
"; ; ; ; ; - ; ; ; ; ; ; ; ; ; w 1 0 5.D.S.N.S.' x.( f.i.4.<.,.j - - - # # # # # # . o ; ; ; ; ; ",
"; ; ; ; ; o # ; ; ; ; ; ; ; ; x r 4 4.n.F.G.B.K &.! w.p.p.5.,.8 : H - # # # # # # . o ; ; ; ; ; ",
"; ; ; ; ; o X # ; ; ; ; ; ; ; G t.S :.p.l.S.s.' h.] f.p.p.5.,.M 9.r.: $ # # # # # . o ; ; ; ; ; ",
"; ; ; ; ; o     # ; ; ; ; ; ; 7 ;.-.:.p.p.l.p.' h.j.f.p.p.5.,.A 1.j - # # # # # $ . o ; ; ; ; ; ",
"; ; ; ; ; o o o X # ; ; ; ; ; 1 F ,.-.i.p.p.p.p.k.1.u.p.5.<.A A Z , # # # # # # # o o ; ; ; ; ; ",
"1 3 1 1 3 . @ # #   @ ; 1 7 5 7 j V y 1.5.p.p.p.p.y.i.5.1.=.B B a : # # # # # # # o o 1 ; ; ; ; ",
"1 - 1 1 1 . o # # @   @ ~ !._.~.~ s = C Z 8.p.p.p.p.8.<.=.Z B a 7 : # # # # # # # o o ; ; ; ; ; ",
"- 1 - 1 1 . o # # # % H ~.).).^.).%.y y M B -.=.=.Z B B B M 2 = : # # # # # # # # . o ; ; ; ; ; ",
"1 1 1 1 1 . o # # - c._.(.@X@X4X@X Xx q.S B B B B B B B B M p ; # # # # # # # # # . o ; ; ; ; ; ",
"1 ; ; ; 1 . . # # 1 (._.OX1X<X@Xc.} e ;.8.A B B B B B B A =.8 4 : $ # # # # # # # o o ; ; ; ; ; ",
"; ; ; ; 1 . . $ # %. XXX<X<X1X&.i B V 7 l e.l.n.n.s.p.6.D j a A f 7 , # # # # # # . o ; ; ; ; ; ",
"; ; ; ; 3 . . # 2 _.oX@X<X<X<Xj :.u.4.v *.&.L { { L L R O.I 6.7.8.a 0 - # # # # # . o ; ; ; ; ; ",
"; ; ; ; 3 . o $ 2 @X@X1X_ _ _ 9 l :.e.t '.=X#.O.O.O.O.H.J.Y 9.7.J 0.8 3 # # # - # . o ; ; ; ; ; ",
"; ; ; ; ; . . # 2 4XOX@Xp u = u u l o.8XqX8X:X=XU.U.U.T.-X-XK.v 0.e 0 q # # # # - . o ; ; ; ; ; ",
"; ; ; ; ; . . # 2 5XoX4XQ.~ p t.h S ! >X8XqX8X,X>X>X>X>X;X%X .f N J t.v # # # # @ . o ; ; ; ; ; ",
"; ; ; ; 3 . o # 2 5X@X@X1X$.M M.G g U %X;X8X0X0X7X7X7X;X%XT.I = 7 2.b.n # # # # -   o ; ; ; ; ; ",
"; ; ; ; 3 o o # 2 4XoX4X1X$.s M.m (./ O.P.`.:X>X>X-X&XY.H.+.e , 0 2.b.n # # # # # . o ; ; ; ; ; ",
"; ; ; 1 1 . . # 2 OXXX4X1X$.8 K z ~ ) E ^  .K.U.U.U.K.W / ^ e : 4 l L z - @ # # - . . ; ; ; ; ; ",
"; ; ; 1 ; . . # 2 oXXX@X` x > > < > : e ^ E X.....O.O.^ / Y : : < 0 j 8 1 - # # @ . o ; ; ; ; ; ",
"; ; 1 1 3 . o # 3 ).XX1Xu u u u u u + + , 0 0 4 0 0 4 4 q $ + 9.|.6Xh.z 1 w - # - . o ; ; ; ; ; ",
"; ; - 1 3 o o # # }  XOX!.~ b /././.+ I I q q q q q q q q Y + /.#X6XV.z ; w w - @ . o ; ; ; ; ; ",
"; ; ; ; 1 . . # # r !.OX1X_._ |.}.V.+  .H.+.+.+.+.+.O.+.+.H.+ j.{.}.' < ; ; 3 3 - . o ; ; ; ; ; ",
"; ; ; ; 1 . o # # * g.E.XX1X1X_ _ ) 0 0 I @.P.P.P.P.P.L.| q T $ : : , , ; ; ; 3 w @ o ; ; ; ; ; ",
"; ; ; ; 1 . o # # # - H ).W.x.W.W.Q./ *X].'.! + % $ + '.[.].I.- ; ; ; ; ; ; ; ; 3 w # ; ; ; ; ; ",
"; ; ; ; 3 . o # # # # - g.^.~.~.~.^.^ 9XqX7X..$ # # $ 7XqX0XK.- ; ; ; ; ; ; ; ; 1 3 1 ; ; ; ; ; ",
"; ; ; ; ; . o # # # # # $ 2 2 2 2 2 P `.:X;XY $ # # $ %X>X-X| : ; ; ; ; ; ; ; ; ; ; 1 ; ; ; ; ; ",
"; ; ; ; 3 . o # # # # # # # # # # : c `.:X%Xe $ # # + R.>X-XX.6 , ; ; ; ; ; ; ; ; ; ; ; ; ; ; ; ",
"; ; ; ; - . . # # # # # # # # # # 3 l r.[.&Xq $ # # $ Y.;Xx.G 9 , ; ; ; ; ; ; ; ; ; ; ; ; ; ; ; ",
"; ; ; ; 1 . O # # # # # # # # # # 3 C a.F.a.m - # # 3 y.D.N.-.j o $ ; ; ; ; ; ; ; ; ; ; ; ; ; ; ",
"; ; ; ; 1 . . # # # # # # # # # # - l a.n.e.j - # # 4 >.l.n.b 2 # X # - ; ; ; ; ; ; ; ; ; ; ; ; ",
"; ; ; ; 1 .   . o @ . . . . . . . . $ l n h & o . . O g n b > . . X X # ; ; ; ; ; ; ; ; ; ; ; ; ",
"; ; ; ; 1 # @ @ @ @ @ @ @ @ @ @ @ @ @ @ % @ @ @ @ @ @ @ % O @ @ @ @ @ . - ; ; ; ; ; ; ; ; ; ; ; ",
"; ; ; ; 1 3 3 1 3 3 1 3 1 3 1 3 3 1 3 3 3 3 1 3 1 3 3 3 3 3 1 3 3 1 ; ; ; ; ; ; ; ; ; ; ; ; ; ; ",
"; ; ; ; ; ; ; ; ; ; ; ; 1 1 1 1 ; ; ; ; ; ; ; ; 1 ; ; ; ; ; ; ; ; ; ; ; ; ; ; ; ; ; ; ; ; ; ; ; ",
"; ; ; ; ; ; ; ; ; ; ; ; 1 1 1 1 ; ; ; ; ; ; ; ; ; ; ; ; ; ; ; ; ; ; ; ; ; ; ; ; ; ; ; ; ; ; ; ; ",
"; ; ; ; ; ; ; ; ; ; ; ; ; ; ; ; ; ; ; ; ; ; ; ; ; ; ; ; ; ; ; ; ; ; ; ; ; ; ; ; ; ; ; ; ; ; ; ; ",
"; ; ; ; ; ; ; ; ; ; ; ; ; ; ; ; ; ; ; ; ; ; ; ; ; ; ; ; ; ; ; ; ; ; ; ; ; ; ; ; ; ; ; ; ; ; ; ; "
};
