/* XPM */
static char *result[] = {
/* columns rows colors chars-per-pixel */
"48 48 209 2 ",
"   c #050507",
".  c #070709",
"X  c #0B0B0F",
"o  c #0D0D11",
"O  c #170E15",
"+  c #0F1015",
"@  c #15151C",
"#  c #19131B",
"$  c #15151B",
"%  c #200F0A",
"&  c #22191F",
"*  c #271B1A",
"=  c #1B1B23",
"-  c #1E1F29",
";  c #1F1621",
":  c #201D23",
">  c #241D29",
",  c #381A21",
"<  c #1F202A",
"1  c #21212C",
"2  c #28232D",
"3  c #272427",
"4  c #372728",
"5  c #2B2432",
"6  c #2A2935",
"7  c #382C36",
"8  c #383434",
"9  c #5B330C",
"0  c #4A2617",
"q  c #48341B",
"w  c #553C17",
"e  c #583E11",
"r  c #523717",
"t  c #522C12",
"y  c #633D06",
"u  c #462925",
"i  c #423123",
"p  c #483422",
"a  c #4A3429",
"s  c #533722",
"d  c #443734",
"f  c #483B35",
"g  c #5C3A35",
"h  c #412F33",
"j  c #633B28",
"k  c #5F4317",
"l  c #694707",
"z  c #7B5302",
"x  c #694915",
"c  c #624514",
"v  c #774717",
"b  c #775416",
"n  c #5C493C",
"m  c #524134",
"M  c #695732",
"N  c #755526",
"B  c #786627",
"V  c #3B3A45",
"C  c #3D3B4B",
"Z  c #373443",
"A  c #2F2C40",
"S  c #403C47",
"D  c #3F4050",
"F  c #484548",
"G  c #534A47",
"H  c #494653",
"J  c #4C4B5B",
"K  c #474753",
"L  c #525359",
"P  c #5E5A5D",
"I  c #545057",
"U  c #664D4B",
"Y  c #7A4B41",
"T  c #665749",
"R  c #665B54",
"E  c #685C54",
"W  c #6F604F",
"Q  c #6D635B",
"!  c #5C5A6A",
"~  c #595964",
"^  c #4D5A78",
"/  c #625C6A",
"(  c #5E646A",
")  c #576271",
"_  c #656469",
"`  c #65696E",
"'  c #6D686E",
"]  c #736766",
"[  c #796E65",
"{  c #6A6C72",
"}  c #756E7E",
"|  c #6F777A",
" . c #6F7477",
".. c #7B737D",
"X. c #787C7E",
"o. c #767776",
"O. c #865805",
"+. c #975A12",
"@. c #895116",
"#. c #AB5F1D",
"$. c #8F6508",
"%. c #956401",
"&. c #9E6706",
"*. c #9D6414",
"=. c #AD6912",
"-. c #B56A18",
";. c #B9681D",
":. c #B37818",
">. c #A86F12",
",. c #895135",
"<. c #A9582E",
"1. c #B76323",
"2. c #B06F2A",
"3. c #C36729",
"4. c #CC6D29",
"5. c #D36D2F",
"6. c #DC6F35",
"7. c #C17522",
"8. c #E07939",
"9. c #915043",
"0. c #926B55",
"q. c #A5765D",
"w. c #B4734C",
"e. c #84796A",
"r. c #867E73",
"t. c #827A7E",
"y. c #8B7D74",
"u. c #B58F3E",
"i. c #B39432",
"p. c #CE9231",
"a. c #E09F3E",
"s. c #E4833D",
"d. c #D7A53C",
"f. c #898546",
"g. c #B59453",
"h. c #8C8175",
"j. c #878074",
"k. c #94857A",
"l. c #96867B",
"z. c #B1966B",
"x. c #EA9243",
"c. c #DBB244",
"v. c #EFA74A",
"b. c #EFAD4B",
"n. c #F7B552",
"m. c #CB8767",
"M. c #D38E6E",
"N. c #F9C655",
"B. c #F3D653",
"V. c #FFE75E",
"C. c #E5CC7E",
"Z. c #4F5E80",
"A. c #5B6985",
"S. c #7D7E81",
"D. c #68768F",
"F. c #827E88",
"G. c #73818F",
"H. c #788182",
"J. c #778A9C",
"K. c #7F97B1",
"L. c #7086A4",
"P. c #8B8F8E",
"I. c #8A8689",
"U. c #83968D",
"Y. c #8B8E91",
"T. c #96979B",
"R. c #959081",
"E. c #AC9C8E",
"W. c #A6978A",
"Q. c #A08E82",
"!. c #9EA29E",
"~. c #AFA394",
"^. c #A3A094",
"/. c #B5A89A",
"(. c #BAB19F",
"). c #90A7A6",
"_. c #87A0B7",
"`. c #95AFBC",
"'. c #B5B0A3",
"]. c #BBB4A4",
"[. c #BEBBA6",
"{. c #BBB8A9",
"}. c #B8B6B8",
"|. c #AAAAAB",
" X c #C1AA89",
".X c #C1BEAA",
"XX c #CABDAD",
"oX c #C4B6A6",
"OX c #D0BDAC",
"+X c #A5C1BA",
"@X c #D4C9B8",
"#X c #DAD4BF",
"$X c #C9C5B1",
"%X c #98B4C7",
"&X c #A9BECF",
"*X c #AAC7D8",
"=X c #B2CEDC",
"-X c #BBCBD2",
";X c #B9DDEC",
":X c #DDD6C3",
">X c #DEDCC5",
",X c #E6D8CC",
"<X c #EBE2DB",
"1X c #C0D9E4",
"2X c #D6E6ED",
"3X c #C6EEFD",
"4X c #DFF6FE",
"5X c #ECF9FE",
"6X c #FAFCFB",
/* pixels */
"- - - - - - - - - - - - - - - - - - - - - - - - - - - - - - - - - - - - - - - - - - - - - - - - ",
"- - - - - - - - - - - - - - - - - - - - - - - - - - - - - - - - - - - - - - - - - - - - - - - - ",
"- - - - - - - - - - - - - - - - - - - - - - - - - - - - - - - - - - < < - - - - - - - - - - - - ",
"- - - - - - - - - - - - - - - - - - - - - - - - - - - - - - - - - - - < - - - - - - - - - - - - ",
"- - - - - - - - - - - - - - - - - - 1 : < - > - - - 2 2 2 - - - < < < < < < < < - - < < < - - - ",
"- - - - - - - - - - - - - o X X X X X X 6 C C C Z 2 f.w.g @ X X X X X X X X X o X X + < - - - - ",
"- - - - - - - - - - - - 1 - @ o o # V F.}.~.~.~.|.' 0.,.; o o o o o o o X o o o X . X < - - - - ",
"- - - - - - - - - - - - - 1 1 = = _ ..T.I.F.S.t.S.I.t...6 > @ @ @ @ @ @ @ $ @ @ $ X + < - - - - ",
"- - - - - - - - - - - - - < - 2 S / } } } F.}  ...} X.I.I 7 $ $ @ @ @ @ @ @ @ @ @ X o - - - - - ",
"- - - - - - - - - - - - - - - 2 H J T h.0.r s , j M n R ../ @ $ @ @ @ @ @ @ @ @ @ X o - - - - - ",
"- - - - - - - - - - - - - - - - > s -.N.v.-.;.p.n.i.+.b J / 6 @ @ @ @ @ @ @ @ @ @ X o < - - - - ",
"- - - - - = - - - - - - - - - - 3 x p.d.>.;.p.B.v.$.%.r d / C @ @ @ @ @ @ @ @ @ @ X o - - - - - ",
"- - - - - o @ - - - - - - - - > 4 <.d.O.1.v.V.b.+.%.%.k c H S : = @ @ @ @ @ @ @ @ X o - - - - - ",
"- - - - < o   @ - - - - - - - 1 e 1.:.5.x.V.v.x.5.>.-.%.z i U @.a @ @ @ @ @ @ @ @ X o - - - - - ",
"- - - - - X . . $ - - - - - - i l 1.=.6.x.n.8.6.3.-.5.%.z i U $.s $ @ @ @ @ @ @ @ X o - - - - - ",
"- - - - - o o o   @ - - - - - { { ' / K ,.5 n d #.4.&.l M g.z u = @ @ @ @ @ @ @ @ o o - - - - - ",
"- - - - - o o @ @ . @ - - - 2 T.T.X.P.|.P._ W d =.&.x B i.$.b i 3 @ @ @ @ @ @ @ @ o o < - - - - ",
"- - - - - o o @ @ X   @ - - 5 P.Y./ P.|.S.U.| ` x O.p d.>.z z q 6 @ @ @ @ @ @ @ @ o o - - - - - ",
"- - - - - X o @ @ @ o   @ - 2 !.!._ ^.!._ |.X.H.D G u.d.-.7.x [ ~.E 8 = # @ @ @ @ X o - - - - - ",
"- - - - - o o @ @ @ @ $   $ 2 !.!._ X.X.L X.X.L F 2.*.v.;.>.T !.{.k.h.m @ @ @ @ @ X o - - - - - ",
"- - - - - o o @ @ @ @ @ o . > !.X.L ` ` K ` ` ~ f *.z i.&.x '.>X>X[.W.j.3 @ $ $ @ X o - - - - - ",
"- - - - - o o @ @ @ @ @ $ + >  .| H ` ` ( _ F 8 e q t k T '.:X>X#X>X:XW.G @ $ $ @ X o - - - - - ",
"- - - - - X o @ @ @ @ @ @ @ = H  .| H._ L m k q @.w 4 ^.@X>X:X:X#X>X#X$X[ : $ $ @ X o - - - - - ",
"- - - - - X o @ @ @ @ @ @ @ @ > S H H V q l k k v r.^.>X>X>Xo.r.$X>X#X>Xl.G < $ @ X o - - - - - ",
"- - - - - o o @ @ @ @ @ @ @ @ @ + # L h T n 8 K h.>X>X:X.Xh.XXk.e..X>X>X@XR # $ @ X o - - - - - ",
"- - - - - X o @ @ @ @ @ @ @ @ @ # % ;Xz.C.z.4 }.oX>X:X:Xy.W.6X,XOXr.>X>X$XG 3 $ @ X o - - - - - ",
"- - - - - o o @ @ @ @ @ @ @ @ @ # ~ =X/.g.m 3 {.OX>X:X:Xr.y.@X<XoXr.>X>X[.G # $ @ X o < - - - - ",
"- - - - - o o @ @ @ @ @ @ @ @ @ # D.3X3X3X3X` (.XX:X>X>Xe.E [ W.y.r.#X:XoXG : $ @ X o - - - - - ",
"- - - - - o o @ @ @ @ @ @ @ @ @ # D.5X3X3X3X{ /.].:X:X>X{.[ h.k.Q $X#X#X$XG = @ @ X o - - - - - ",
"- - - - - X o @ @ @ @ @ @ @ @ ; & S.6X5X5X5X .~.(.#X:X>X>X[.R R R.:X>X#X@XR = @ @ X o - - - - - ",
"- - - - - o o @ @ @ @ @ @ @ f Y Y J `.2X2X2X%XL XX#X>X>X>X>X>X>X#X:X#X>Xk.F < @ @ X o - - - - - ",
"- - - - - o o @ @ @ @ @ @ : q.m.M.m J ).+X).) H y.@X:X>X>X:X:X>X:X>X>X(.k.3 1 = @ X o - - - - - ",
"- - - - - X o @ @ @ @ @ @ = q.m.w.u 5 T.S.J.Z V ] /.$X>X>X>X:X:X:X:X:XW.G - 1 1 = X X < < - - - ",
"- - - - - o o @ @ @ @ @ @ ; 0.m.9., 6 S L H > ; 5 ] l.E.].].{.].(./.Q.R.3 - - 1 < $ X - - - - - ",
"- - - - - o o @ @ @ @ @ @ # u g > # D.D ! J.J.A.Z.^ / e.W.W.E.E.E.k.E 8 - - - - 1 1 = - - - - - ",
"- - - - - o o @ @ @ @ @ @ @ # & @ = Z > Z K D._.^ 6 > 8 R R R R E F 2 > - - - - < 1 < - - - - - ",
"- - - - - X o @ @ @ @ @ @ @ @ @ $ % f Q j ~ 4 5 K J._.0 o   @ = - - - - - - - - - - < - - - - - ",
"- - - - - o o @ @ = @ @ @ @ @ @ $ % &X6X&X*XU ! L.K._.u = O   @ - - - - - - - - - - - - - - - - ",
"- - - - - o o @ @ @ @ @ # @ @ @ $ O &X1X=XD.g h _.%XK.H = = . . $ - - - - - - - - - - - - - - - ",
"- - - - - X o @ @ @ @ @ @ @ @ @ = , ;X;X1XH & ; h ~ m t , = @ o   $ - - - - - - - - - - - - - - ",
"- - - - - o o @ @ @ @ @ @ @ @ = , t m.m.I.# = q l 9 l 9 4 = @ @ $   @ - - - - - - - - - - - - - ",
"- - - - - o . o X X X X X X o a <.v @.@.N > q l l 9 9 u & o o o .     @ - - - - - - - - - - - - ",
"- - - - - @ + + o $ o $ + + > g.v e r r e 5 5 6 2 5 6 + o o + + + + + . = - - - - - - - - - - - ",
"- - - - - < < < < 1 < < < < > - 1 1 > 1 2 1 1 1 1 1 < 1 1 1 < < 1 < < = - - - - - - - < - - - - ",
"- - - - - - - - - - - - < - - - - - - - - - - - - - - - - - - - < - - - - - - - - - - - - - - - ",
"- - - - - - - - - - - - < < - - - - - - - - - - - - - - - - - - < < - - - - - - - - - - - - - - ",
"- - - - - - - - - - - - - - - - - - - - - - - - - - - - - - - - - - - - - - - - - - - - - - - - ",
"- - < - - - - - - - - - - - - - - - - - - - - - - - - - - - - - - - - - - - - - - - - - - - - - "
};
