/* XPM */
static char *result[] = {
/* columns rows colors chars-per-pixel */
"48 48 214 2 ",
"   c #070709",
".  c #0B0B0F",
"X  c #040406",
"o  c #0D0D11",
"O  c #160D16",
"+  c #0F1015",
"@  c #15151C",
"#  c #1A141E",
"$  c #1C181D",
"%  c #381C19",
"&  c #21161F",
"*  c #1B1B23",
"=  c #1E1F29",
"-  c #201D24",
";  c #231D29",
":  c #2C1E22",
">  c #381A21",
",  c #1E202A",
"<  c #22212C",
"1  c #272325",
"2  c #382929",
"3  c #232531",
"4  c #2B2432",
"5  c #2C2938",
"6  c #342C3A",
"7  c #373136",
"8  c #49281B",
"9  c #532D18",
"0  c #583E11",
"q  c #523717",
"w  c #553213",
"e  c #623C07",
"r  c #643819",
"t  c #462925",
"y  c #423122",
"u  c #4C3921",
"i  c #493328",
"p  c #563822",
"a  c #473933",
"s  c #5E3E38",
"d  c #613C2A",
"f  c #5C421A",
"g  c #694707",
"h  c #724A0B",
"j  c #7A5304",
"k  c #694A14",
"l  c #624513",
"z  c #7A4815",
"x  c #5B493C",
"c  c #564734",
"v  c #724B2B",
"b  c #786627",
"n  c #383441",
"m  c #3A3A44",
"M  c #3E3B4C",
"N  c #353445",
"B  c #2F2C40",
"V  c #433D4C",
"C  c #453E50",
"Z  c #3E4049",
"A  c #4E4543",
"S  c #42424B",
"D  c #4E4B4E",
"F  c #52484B",
"G  c #4A4751",
"H  c #4C4C5A",
"J  c #484954",
"K  c #525259",
"L  c #5C575A",
"P  c #674E4A",
"I  c #665649",
"U  c #665C55",
"Y  c #695F57",
"T  c #7A554C",
"R  c #6E625A",
"E  c #74685F",
"W  c #555B6A",
"Q  c #5C5A6A",
"!  c #5A5962",
"~  c #4A536E",
"^  c #635D66",
"/  c #625C6F",
"(  c #5E6569",
")  c #5D6878",
"_  c #656469",
"`  c #65696E",
"'  c #6B676D",
"]  c #776B64",
"[  c #6F6A72",
"{  c #746D7E",
"}  c #6F777A",
"|  c #6F7477",
" . c #7B737E",
".. c #787C7E",
"X. c #787677",
"o. c #7D7368",
"O. c #885B03",
"+. c #965E0C",
"@. c #975A12",
"#. c #85451A",
"$. c #AB5F1D",
"%. c #B86A1B",
"&. c #B37818",
"*. c #A96C11",
"=. c #875425",
"-. c #945526",
";. c #864E33",
":. c #A95A2F",
">. c #AB5B2D",
",. c #806C38",
"<. c #AB6C21",
"1. c #B76323",
"2. c #BD6125",
"3. c #BA7925",
"4. c #A27C39",
"5. c #8F6B0B",
"6. c #C36729",
"7. c #C96D26",
"8. c #DC6F35",
"9. c #D0752F",
"0. c #926954",
"q. c #A5765D",
"w. c #B36B55",
"e. c #81766C",
"r. c #857B72",
"t. c #827A7E",
"y. c #8B7D74",
"u. c #916F62",
"i. c #965749",
"p. c #C37860",
"a. c #B38935",
"s. c #C68B2E",
"d. c #D68634",
"f. c #D2872E",
"g. c #E4833D",
"h. c #E09F3E",
"j. c #D4A438",
"k. c #898546",
"l. c #B29848",
"z. c #B8925D",
"x. c #B0A641",
"c. c #8A8074",
"v. c #928277",
"b. c #94857A",
"n. c #99897D",
"m. c #B09A62",
"M. c #EA9544",
"N. c #E88D41",
"B. c #DFAD46",
"V. c #D7B742",
"C. c #EFA54A",
"Z. c #EFAD4B",
"A. c #EBB447",
"S. c #F7B552",
"D. c #CD8667",
"F. c #F7C153",
"G. c #F9D958",
"H. c #FFE55E",
"J. c #FFF35F",
"K. c #E5CC7E",
"L. c #4F5E80",
"P. c #586784",
"I. c #707A8B",
"U. c #847C82",
"Y. c #73818F",
"T. c #788182",
"R. c #7A8D9B",
"E. c #7F97B1",
"W. c #8B8F8E",
"Q. c #878589",
"!. c #909391",
"~. c #A49689",
"^. c #AC9C8E",
"/. c #A59789",
"(. c #A39D94",
"). c #A08E82",
"_. c #9EA29E",
"`. c #AFA394",
"'. c #A3A094",
"]. c #B3AD9C",
"[. c #B3A598",
"{. c #869AA9",
"}. c #96AEB9",
"|. c #90A7A6",
" X c #B6B3A4",
".X c #BBB3A3",
"XX c #BEB9A6",
"oX c #BBB8A9",
"OX c #B8B6B8",
"+X c #ABADAF",
"@X c #C2B8A9",
"#X c #CBBCAC",
"$X c #C2B6A7",
"%X c #C8BEB0",
"&X c #A5C1BA",
"*X c #CAC1AE",
"=X c #CDC7B4",
"-X c #D3C8B8",
";X c #DBD2BE",
":X c #9BB9CF",
">X c #8CA8C1",
",X c #B1CDDC",
"<X c #B9DDEC",
"1X c #DDD6C3",
"2X c #DEDDC5",
"3X c #DED1CA",
"4X c #F0E9DF",
"5X c #C0D9E4",
"6X c #D9E7EE",
"7X c #C6EEFD",
"8X c #D9F4FE",
"9X c #C6E1ED",
"0X c #ECF9FE",
"qX c #F7FBFB",
/* pixels */
"= = = = = = = = = = = = = = = = = = = = = = = = = = = = = = = = , , * , , * = = = = = = = = = = ",
"= = = = = = = = = = = = = = = = = = = = = = = = = = = = = = = = < * , , , < , < = = , = = = = = ",
"= = = = = = = = = , = = = = = = = = = = = = = ; = = = = = = = = , , , , , , , * = = * , = = = = ",
"= = = = = = = = = = = = = = = = = = = = = = = * = = = = = = = = , , * , * , , , = , , , = = = = ",
"= = = = = = = = = = = = , , , , = = ; 4 4 ; ; * , , , ; = = = = , , , , , < = < = = * , , , = = ",
"= = = = = = = = = = = = = o o   . o * v l.k.4 n M M M 6 o o o o . . . . . .   . . . @ , < * = = ",
"= = = = = = = = = = = , , = @ o o o o ; ;.0./ +X`.`.[.OX .7 * o + . o o . o . . .   . , , , , = ",
"= = = = = = = = = = = , , , 3 * @ @ < n  .t.U.t.t.I.U.U.!. .' @ # @ @ @ @ @ @ @ @ . o < , * , , ",
"= = = = = = = = = = = = = , 3 , @ @ 6 / Q.t. .I.{ t. .{ { I.^ n 4 # @ @ @ @ @ @ @ . o = = = = = ",
"= = = = = = = = = = = = = = = , < * Q { T x v p 8 9 p u.u.I H C < @ @ @ @ @ @ @ @ . o = = = = = ",
"= = = = = = = = = = = = = = = = < N / M =.<.B.Z.s.%.%.M.S.&.p - @ @ @ @ @ @ @ @ @ . o = = = = = ",
"= = = = , * = = = = = = = = = = , M / f q %.<.A.G.&.%.&.A.d.l * @ @ @ @ @ @ @ @ * . o = = = = = ",
"= = = = = o @ = = = = = = = = < < C D :.v C.G.a.Z.H.C.6.O.j.:.1 $ @ @ @ @ @ @ @ O . o = = = = = ",
"= = = = , o X @ = = = = = = = i -.P y 1.6.J.H.M.N.F.H.M.6.3.1.y * @ @ @ @ @ @ @ @ o o = = = = = ",
"= = = = = o X   @ = = = = = = u O.I y +.7.Z.j.9.8.g.F.g.8.+.1.h 2 # @ @ @ @ @ @ @ . o = = = = = ",
"= = = = = o o o X @ = = = = = = f j a.v h 7.9.$.4 4 4 G ' [ [ [ V @ @ @ @ @ @ @ @ . o = = = = = ",
"= = = = , o o @ @   + = , , , 1 f j 5.x.b k *.v S ` ( +XW.I.!._.L @ @ @ @ @ @ @ * . . * = = = = ",
"= = = = = o o @ @ o   @ , , , 2 f O.j s.j.y f R | Q.( ].W.! W.W.! - @ @ @ @ @ @ @ . o = = = = = ",
"= = = = = . o @ @ @ o   @ A T `.F k 6.9.C.4.Z ( ..+X[ _._._ _._._ 1 @ @ @ @ @ @ @ o o = = = = = ",
"= = = = = o o @ @ @ @ + c n.n.&X'.I *.f.j.f Z N ....K ....K _._._ ; @ @ @ @ @ @ @ o o = = = = = ",
"= = = = = . o @ @ @ @ , c.].XX2X2X Xk *.&.h c m ` ` G ` _ G .._._ 4 @ @ @ @ @ @ @ . o = = = = = ",
"= = = = , . o @ @ @ * A ^.2X;X2X2X2X].c 0 0 u 2 S ( ! ` ` D } } G ; @ @ @ @ @ @ @ . o = = = = = ",
"= = = = , . o @ @ @ 1 o.=X2X2X1X1X2X2X.X(.2 g -.2 a S ( T.} | G B * @ @ @ @ @ @ @ . o = = = = = ",
"= = = = , o o @ @ $ r.b.2X2X1X@Xr.X.1X1X1X(.I z l q f m G J c 2 = @ @ @ @ @ @ @ @ . o = = = = = ",
"= = = = = o o @ $ $ b.=X2X;X$Xe.).#Xc.=X1X2X1Xy.D a c I 4 K ; ; * @ @ @ @ @ @ @ @ . o = = = = = ",
"= = = = = . o @ + - E #X;X;Xr.#X4XqX/.].1X2X2X$XOX2 m.K.`.<XO ; 3 * @ @ @ @ @ @ @ o o = = = = = ",
"= = = = = o o @ @ - R $X2X;Xr.$X3X-Xr.].;X2X1X*X X$ c z.*X,XW * < < * @ @ @ @ @ @ . o = = = = = ",
"= = = = = o o @ @ - R @X2X2Xc.y.v.] R ].2X;X1X*X X}.7X7X7X7XI.* = < = = @ @ @ @ @ . o = = = = = ",
"= = = = = o o @ @ $ o.*X1X;X&XR ~.y.] =X1X2X2X.X].}.7X7X7X0XY.* * = 3 3 * + @ @ @ . o = = = = = ",
"= = = = = . o @ @ 1 b.-X1X;X;Xn.E U @X1X1X1X1X.X`.+X0X0X0XqXI.* - ; = < = * @ @ @ . o = = = = = ",
"= = = = = . o @ @ $ I v.1X2X2X2X2X1X2X2X2X1X-X@XK ,X6X6X9X}.H i.T a = = < 3 * @ @ . o = = = = = ",
"= = = = = o o @ @ @ 2 v..X2X2X2X1X1X1X2X2X2X*Xc.J ) |.&XR.H s p.D.q.* = = < 3 * @ . o = = = = = ",
"= = = = = . o @ @ @ * A /.2X2X1X1X1X1X2X2X=X%X] m N W.} ) 4 t w.D.q.; , = = 3 3 *   o = = = = = ",
"= = = = = o o @ @ @ @ 1 n.).]..X.X.X.X$X^.n.K 5 ; * J ! B 4 > w.D.i.= = = = = , 3 + o = = = = = ",
", = = = = o o @ @ @ @ @ 7 U v.^.^.^.~.^.e.U P.L.P.R.R.W ) I.# i s i = = = = = = 3 , @ = = = = = ",
"= = = = = o o @ @ @ @ @ # - A Y U U U U 7 ; B ~ {.W J N n N * ; ; ; = = = = = = = 3 , = = = = = ",
"= = = = = o o @ @ @ @ @ @ @ @ @ @ @ @ @ t 2.8 4 ~ ^ ^ W O > # = = = = = = = = = = = , = = = = = ",
"= = = = = . o @ @ @ @ @ @ @ @ @ @ @ @ @ t f.p 4 >X8XqXW ,.3.O @ = = = = = = = = = = = = = = = = ",
"= = = = = . o @ @ @ @ @ @ @ @ @ @ @ O ; 8 =.r C ~ :X,XI.l.A.%   @ = = = = = = = = = = = = = = = ",
"= = = = = o o @ @ @ @ @ @ @ @ @ @ # - % 9 9 2 2 B :X<X{.9 r t + X @ * = = = = = = = = = = = = = ",
"= = = = , o o @ @ @ @ @ @ @ @ @ @ @ * 8 w e e e i P.` T >.2.9 : @ X @ * = = = = = = = = = = = = ",
"= = = = = .   . . . .   . . . . o o o : y e e g g a 6 h @.#.z :.i X X @ = = = = = = = = = = = = ",
"= = = = = @ + + + + + + + + + + + + + + + 4 4 4 4 4 4 0 8 w 0 =.l.; o o * = = = = = = = = = = = ",
"= = = = , , , < < < < , < < < < , < , , < < < < , , < < < < < < 4 < , = = = = = = = = = = = = = ",
"= = = = = = = = = = = = , = = = = = = = = = = = , = = = = = = = = = = = = = = = = , = = = = = = ",
"= = = = = = = = = = = = = = = = = = = = = = = = = = = = = = = = = = = = = = = = = = = = = = = = ",
"= = = = = = = = = = = = = = = = = = = = = , = = = = = = = = = = = = = = = = = = = = = = = = = = ",
"= = = = = = = = = = = = = = = = = = = = = = = = = = = = = = = = = = = = = = = = = = = = = = = = "
};
