/* XPM */
static char *result[] = {
/* columns rows colors chars-per-pixel */
"48 48 246 2 ",
"   c #160A08",
".  c #151B08",
"X  c #12180A",
"o  c #390D09",
"O  c #3A190C",
"+  c #381913",
"@  c #2B1408",
"#  c #182708",
"$  c #1C2611",
"%  c #272809",
"&  c #28390A",
"*  c #38340C",
"=  c #262B12",
"-  c #352912",
";  c #293813",
":  c #363A18",
">  c #3C2A0C",
",  c #383622",
"<  c #44140C",
"1  c #49170C",
"2  c #57190D",
"3  c #471816",
"4  c #531C13",
"5  c #5B1D14",
"6  c #6B1C0C",
"7  c #621E11",
"8  c #472418",
"9  c #5C2214",
"0  c #582619",
"q  c #483513",
"w  c #593A18",
"e  c #492E0C",
"r  c #65220F",
"t  c #652214",
"y  c #6A2315",
"u  c #642519",
"i  c #6B2A1D",
"p  c #67281B",
"a  c #742B1B",
"s  c #7B2C1B",
"d  c #742715",
"f  c #68361B",
"g  c #78331C",
"h  c #73240F",
"j  c #582B28",
"k  c #51332D",
"l  c #682C21",
"z  c #732D21",
"x  c #7A2F20",
"c  c #6B3628",
"v  c #743224",
"b  c #7C3323",
"n  c #793828",
"m  c #663637",
"M  c #471E21",
"N  c #2C4408",
"B  c #354A09",
"V  c #384917",
"C  c #3B5414",
"Z  c #2D4313",
"A  c #3E4323",
"S  c #454816",
"D  c #46581A",
"F  c #505112",
"G  c #6A4C1A",
"H  c #536A0C",
"J  c #496217",
"K  c #566A17",
"L  c #5A781B",
"P  c #4C6A09",
"I  c #66790D",
"U  c #647917",
"Y  c #65661C",
"T  c #45492A",
"R  c #574A26",
"E  c #4A5827",
"W  c #535928",
"Q  c #4E5332",
"!  c #545337",
"~  c #78482A",
"^  c #7A4735",
"/  c #785C31",
"(  c #6A512F",
")  c #576A2A",
"_  c #597125",
"`  c #586636",
"'  c #496320",
"]  c #657928",
"[  c #687836",
"{  c #6D6F31",
"}  c #6A4647",
"|  c #77504E",
" . c #6A6B47",
".. c #6A7644",
"X. c #737849",
"o. c #797A5B",
"O. c #786551",
"+. c #756F62",
"@. c #584641",
"#. c #842E1A",
"$. c #872D14",
"%. c #84321C",
"&. c #8B361C",
"*. c #983A1A",
"=. c #A13D13",
"-. c #833522",
";. c #853A25",
":. c #843C2A",
">. c #883926",
",. c #923C24",
"<. c #833F31",
"1. c #9A4A17",
"2. c #B46A11",
"3. c #8C432C",
"4. c #894427",
"5. c #93432D",
"6. c #9C452A",
"7. c #984727",
"8. c #9B582A",
"9. c #894736",
"0. c #9B4B34",
"q. c #944E3B",
"w. c #934733",
"e. c #99553C",
"r. c #8D5C2E",
"t. c #A24C34",
"y. c #A65638",
"u. c #B45633",
"i. c #AD4F29",
"p. c #866636",
"a. c #867535",
"s. c #B06936",
"d. c #A9471E",
"f. c #CB740B",
"g. c #C46D2A",
"h. c #8C5645",
"j. c #9A5442",
"k. c #855C5D",
"l. c #8C5549",
"z. c #A85C43",
"x. c #B55F45",
"c. c #9B694E",
"v. c #976656",
"b. c #89724D",
"n. c #A8624C",
"m. c #B66848",
"M. c #A96854",
"N. c #B27659",
"B. c #886768",
"V. c #967B7B",
"C. c #8E746A",
"Z. c #AB7362",
"A. c #B17C70",
"S. c #C47C59",
"D. c #6A8616",
"F. c #6E8710",
"G. c #6C8436",
"H. c #758928",
"J. c #768747",
"K. c #7D8A5D",
"L. c #828B13",
"P. c #918B30",
"I. c #AB8D2B",
"U. c #9DA11A",
"Y. c #DA8C12",
"T. c #F1A50F",
"R. c #FCBA28",
"E. c #DE951A",
"W. c #FFC327",
"Q. c #848B57",
"!. c #90914F",
"~. c #AE8F4F",
"^. c #9AA54E",
"/. c #AAA757",
"(. c #8B9764",
"). c #959A75",
"_. c #938B6F",
"`. c #AB8A76",
"'. c #A6987C",
"]. c #B18E6B",
"[. c #9CA179",
"{. c #98A36D",
"}. c #ACB16E",
"|. c #CA8F74",
" X c #D3AD6F",
".X c #CACF7C",
"XX c #F6D16F",
"oX c #9B9485",
"OX c #968283",
"+X c #B79D9C",
"@X c #AB958B",
"#X c #9FA384",
"$X c #A6AB85",
"%X c #B8A383",
"&X c #AAB387",
"*X c #ADAB94",
"=X c #BAAD97",
"-X c #B4B699",
";X c #AFB192",
":X c #BBA8A6",
">X c #B8BAA6",
",X c #CB9C89",
"<X c #C6A99D",
"1X c #CDAD92",
"2X c #C6ACA3",
"3X c #C6BBA9",
"4X c #C7BDB5",
"5X c #D4B3A7",
"6X c #E4B798",
"7X c #BCC591",
"8X c #D3C492",
"9X c #F4D489",
"0X c #C7C4AB",
"qX c #CCCABC",
"wX c #CAC5B6",
"eX c #D1C5BC",
"rX c #D5C9BB",
"tX c #DBD6BB",
"yX c #D1C7AC",
"uX c #ECD8B0",
"iX c #F8E4A9",
"pX c #D5CDC4",
"aX c #DBCDC5",
"sX c #DAD1C5",
"dX c #DAD4CB",
"fX c #D6D4C5",
"gX c #DEDAD1",
"hX c #D2CDC6",
"jX c #E4D9C9",
"kX c #E3DDD5",
"lX c #E4DFD9",
"zX c #E8DCD2",
"xX c #E5E1D5",
"cX c #E6E1DA",
"vX c #E9E4DE",
"bX c #EBE6D8",
"nX c #F6E7D5",
"mX c #F2EACE",
"MX c #ECE8E3",
"NX c #F3EDE8",
"BX c #F4F2ED",
"VX c #F9F6F3",
"CX c #FAF9F6",
"ZX c #FEFEFD",
"AX c #F7F5F1",
"SX c None",
/* pixels */
"SXSXSXSXSXSXSXSXSXSXSXSXSXSXSXSXSXSXSXSXSXSXSXSXSXSXSXSXSXSXSXSXSXSXSXSXSXSXSXSXSXSXSXSXSXSXSXSX",
"SXSXSXSXSXSXSXSXSXSXSXSXSXSXSXSXSXSXSXSXSXSXSXSXSXSXSXSXSXSXSXSXSXSXSXSXSXSXSXSXSXSXSXSXSXSXSXSX",
"SXSXSXSXSXSXSXSXSXSXSXSXSXSXSXSXSXSXSXSXSX0.SXSXSXSXSXSXSXSXSXSXSXSXSXSXSXSXSXSXSXSXSXSXSXSXSXSX",
"SXSXSXSXSXSXSXSXSXSXSXSXSXSXSXSXSXSXSXSXn :.t.SXSXSXSXSXSXSXSXSXSXSXSXSXSXSXSXSXSXSXSXSXSXSXSXSX",
"SXSXSXSXSXSXSXSXSXSXSXSXSXSXn m.SXSXSXSXn >.b SXSX}.0XSXn.u.SXSXSXSXSXSXSXSXSXSXSXSXSXSXSXSXSXSX",
"SXSXSXSXSXSXSXSXSXSXSXSXSXSXi n s.SXmXyX5.9.n SXSX.X}.SX,.5.SXSXSXSXSXSXSXSXSXSXSXSXSXSXSXSXSXSX",
"SXSXSXSXSXSXSXSXSXSXSXSXSXp.g x :.S.8Xe.,.z x :.AXmX~.|.x n ,XSX}.SX0.y.SXSXSXSXSXSXSXSXSXSXSXSX",
"SXSXSXSXSXSXSXSXSXSXSX/.SXH.u b >.-.P.v :.c l <. X7Xw.m.b a ,XxX{.-X5.;.SXSXSXSXSXSXSXSXSXSXSXSX",
"SXSXSXSXSXSXSXSXSXSXSXP.wX[ d ;.0.y  Xn a 9.l :.3.) b n -.a v.).N.].n.z.c.SXSXSXSXSXSXSXSXSXSXSX",
"SXSXSXSXSXSXSXSXSXSX%XJ -X{ %.:.9.v nX Xc c.^ 7.n ` f i 5 i h.E s t.A.z.b.$XSXSXSXSXSXSXSXSXSXSX",
"SXSXSXSXSXSXSXSXz.h.c.r.X.R z v q.8.mXmX'.P.a.`.R { %.a 5 n e.C z z n s  .!.&XSX}.U.SXSXSXSXSXSX",
"SXSXSXSXSXSXSX%X9.j.6.g ~ f b x 7.g.9XmXtX}..XMX)._.e.4.g *.,.G M.n x 5.S ] ^.ZX}.H.SXSXSXSXSXSX",
"SXSXSXSXSXSXAXeXb n.,.m u &.x >.i.2.W.iXjXrXzXnXzXaX<X%Xr.r.a %.n.9.*.w.T D ~.MXM.a.SXSXSXSXSXSX",
"SXSXSXSXSXMXBX0Xv 5.t N.m >.p >.w.1.T.iXzXaXaX5XjXzXnXnX=X{ 1 2 a :.=.i : R N.5XZ.n.CXSXSXSXSXSX",
"SXSXSXSXSXsXNXtXG h d z.|.M.^ a i u E.cXeXdXaX} l.2X2X6XnX'.+ 4 p p s 9 = 6.z.|.j.^ CXZXSXSXSXSX",
"SXSXSXSX,X].v.|.R 8 s 3.q.M.b./ 2 3 P.fX+X+XaX4 m OX+X5XtXzX, ^ v v $.i ~ #.x q.p 0 vXZXSXSXSXSX",
"SXSXSX/.w.9.c >.;.f &.g 4.n b.[ X.G !.<Xm k.:XV.eXaX:XB.:XzX+.j a s 1 4.5.t i a 9 O 0XZXZXSXSXSX",
"SXSXSX/.y d q.h.4.t $.9 ,.y./ ] Q.S X._.3 j @X+XB.k.m M B.5XOX+ p v l.N.e.y.a a O k 8XMXZXSXSXSX",
"SXSXlXwXt t q.n.w.4 d 0 -.,.w ) G.: = eXM < OX} B.} M 3 } :XC.M 3XaXjXuX~.*.d 9   W e.}.CXCXSXSX",
"SXSXlXlXv.~ >.y.g Z.9.Z.y s % W J.W # aXV.M j } m j 3 B.B.hX .dXNXAXmX X8.6 6 q.= Z.n / xXZXSXSX",
"SXSXlXgX>X`.a %.i 6.5.5X`.b.: ' [ W # -XrX2Xm 3 k.V.| OXkX_./.VXBXuXXX8.*.o ,.z.].m.n ~ 8XZXBXSX",
"SXkXkXkXK.! 9 5 u b x.3.iXwXX.` L ) Z Q yXpXaXpXaXzXrX<XoX` }.nX^./.s.6 y.l.b 0.|.%.i ~ J.ZXVXSX",
"SXG.(.*X_ D Y   < 1.$.*.W.iXjX[ _ , E V 3X0XyXeX3X5X'.V ; E ] D.F.[ Y a.y.s i d s 5 5 v.cXZXCXSX",
"SX&X>X' D Q.1Xx s s 6 1 2.W.XXuX}.A ' D.) Q.=X=X*X%XT . & I P a.V H.D.U ^ ,.y d 2 < < V.ZXZXCXSX",
"SXgX' J C 6.,Xv.-.3 y j.t 2.R.W.9X^.K H D E C  .'.Q.V # N & & C & F.J ( 0.r =.y < c V X.CXZXCXSX",
"SXgX0X) E 4.&.<Xn.z.y n.;.Y I.T.T.U.C Z F.L V X = : Z Z D # # # # J D o 6 < -.m.+ 6.w.).ZXZXCXSX",
"SXcXdX*XZ.#.2 S.j.0.n.t.4.e * { Y.F.C E P P & X X . N B C X & = # Z D + y.c s N.@Xs :.MXZXZXAXSX",
"SXxXlXhX_.#.1 7 ,.b l.!.u.I O W * I _ C N N & % $ ; D Z # $ W # ; - > :.>.3.j.m.&.i l MXZXZXBXSX",
"SXkXlX{.o.r 1 9 n g 9 S h ~ e . * P Z D & N & N T /.b.S ; [ [ $ + ^ 9.t.<.l x d 7 y c -XZXZXvXSX",
"SXkXlX$X..% . w n O O 1.2 &.t c w % # B H B F.N 9X8X6X!.X V T : z z.x.s 9.h.0 t 2 2 c Q.bXZXxXSX",
"SXkXlXpX..B D ] w G q.i.u 7.y.w.e.f % * F N J & T.9X9X8XT % = W s g.#.x $.u.0 1 < + ( [ -XBXkXSX",
"SXSXkXkX;X..).H.U 4.,.0.9.y.N.a e.4.9 g f * T q f.Y.R.XX X- ^ M.,.j.q.t.,.z.O + k T @X-XqXvXSXSX",
"SXSXkXlXhXpX{.D.L ;.#.z.q.b l.p 4.d h t t ( R w =.2.f.Y.Y.~ x.j.,.q.0.#.,.p F = o._.qXgXNXkXSXSX",
"SXSXcXkXdXaX!.P Y %.d p 9.x M.u d 7 s a %.&.u h 6 $.s 1.2.,.>.z 6.#.z x y j F.S ` oXhXCXvXsXSXSX",
"SXSXSXlXgXgX{.) / -.y 4 u p 9.< 4 y 0.-.y.*.-.6 h i.,.%.d.$.0 $.s a y x u u P E K.wXMXBXdXSXSXSX",
"SXSXSXxXkXkX{.J.b.n 5 < 0 0 > % @ y #.-.y.;.a 2 $.t.A.q.d *.q 7 7 y 5 l 7 O.S { K.fXBXgXsXSXSXSX",
"SXSXSXSXxXlX(.(.$X} 3 $ S F S & % e s -.;.^ 9 k 6 $.A.n.q.d e F e G < 4 8 _.o.oX;XNXcXsXSXSXSXSX",
"SXSXSXSXSXzX-X0XeXOXO.C C D H U Z > d ,.b c 3 ..< t <.w.z.l w K ) L.S M @.+X4X>XqXvXsXSXSXSXSXSX",
"SXSXSXSXSXSXcXlXdX4XJ.) ) ).[ D.D % a >.t 3 = ..> 5 <.:.b c q H Y H.D T oXhXMXdXpXsXSXSXSXSXSXSX",
"SXSXSXSXSXSXSXvXgX).J _ K.&XK.K.K.+.n t 1   A ).` 2 9.x t + S P ) [ ) ` >XhXNXgXpXSXSXSXSXSXSXSX",
"SXSXSXSXSXSXSXSXlX[ J J.(.[.#XwX3X4X( @   $ E o.Q O -.z u $ Q C ..;X#XW 4XaXkXpXSXSXSXSXSXSXSXSX",
"SXSXSXSXSXSXSXSXSX;X$X-X-XwXgXlXMXMX_ % ; C.(.{.#X@.5 5 j T ).` [ qXqX-XpXsXqXSXSXSXSXSXSXSXSXSX",
"SXSXSXSXSXSXSXSXSXSXdXxXdXgXMXBXVXCX$X` E hX$X[.J.o.} @.B.>XcXqXqXhXdXdXpXeXSXSXSXSXSXSXSXSXSXSX",
"SXSXSXSXSXSXSXSXSXSXSXSXcXMXcXcXMXMXhX*X-XhXG.G.G.C.@X:X4XVXNXlXgXfXpXeXSXSXSXSXSXSXSXSXSXSXSXSX",
"SXSXSXSXSXSXSXSXSXSXSXSXSXSXcXvXvXxXdXsXdXwXK L _ ).wXpXdXkXgXdXhXqXSXSXSXSXSXSXSXSXSXSXSXSXSXSX",
"SXSXSXSXSXSXSXSXSXSXSXSXSXSXSXSXjXkXcXcXxXgX(.$XK.;XpXdXdXsXqXwXSXSXSXSXSXSXSXSXSXSXSXSXSXSXSXSX",
"SXSXSXSXSXSXSXSXSXSXSXSXSXSXSXSXSXSXSXSXqXfXeXqX4XwXeXSXSXSXSXSXSXSXSXSXSXSXSXSXSXSXSXSXSXSXSXSX",
"SXSXSXSXSXSXSXSXSXSXSXSXSXSXSXSXSXSXSXSXSXSXSXSXSXSXSXSXSXSXSXSXSXSXSXSXSXSXSXSXSXSXSXSXSXSXSXSX"
};
